<?xml version="1.0" encoding="utf-8"?>
<!-- Generator: Adobe Illustrator 16.0.0, SVG Export Plug-In . SVG Version: 6.00 Build 0)  -->
<!DOCTYPE svg PUBLIC "-//W3C//DTD SVG 1.1//EN" "http://www.w3.org/Graphics/SVG/1.1/DTD/svg11.dtd">
<svg version="1.1" id="Livello_1" xmlns="http://www.w3.org/2000/svg" xmlns:xlink="http://www.w3.org/1999/xlink" x="0px" y="0px"
	 width="100px" height="100px" viewBox="0 0 100 100" enable-background="new 0 0 100 100" xml:space="preserve">
<g id="Livello_3">
</g>
<g>
	<path fill="#FFFFFF" d="M49.813,6.688C25.339,6.688,5.5,26.527,5.5,51c0,24.475,19.839,44.313,44.313,44.313
		S94.126,75.475,94.126,51C94.125,26.527,74.286,6.688,49.813,6.688z M34.934,46.18c0,12.051-3.117,18.077-9.351,18.077
		c-3.237,0-5.651-0.931-7.243-2.794c-1.291-1.499-2.103-3.716-2.436-6.65c-0.156-1.321-0.234-3.96-0.234-7.915
		c0-1.457,0.031-2.633,0.094-3.528c0.063-0.947,0.156-1.608,0.281-1.983c0.26-0.759,0.728-1.139,1.405-1.139
		c0.958,0,1.437,0.879,1.437,2.638v9.164c0,6.307,2.206,9.46,6.619,9.46c4.152,0,6.229-5.308,6.229-15.923c0-0.396,0-0.906,0-1.53
		c-0.011-0.624-0.016-1.041-0.016-1.249c0-0.646,0.114-1.212,0.343-1.702c0.291-0.625,0.723-0.937,1.296-0.937
		c1.041,0,1.561,0.713,1.561,2.139c0,0.427,0.005,1.072,0.016,1.936C34.934,45.108,34.934,45.753,34.934,46.18z M57.664,49.661
		c-0.813,3.393-1.875,7.228-3.186,11.505c-0.291,0.947-0.775,1.921-1.451,2.92c-0.365,0.551-0.859,0.821-1.483,0.812
		c-1.135-0.021-2.02-1.431-2.654-4.23c-0.208-0.896-0.421-2.113-0.64-3.653l-0.515-3.481l-1.28,2.982l-2.373,6.447
		c-0.135,0.396-0.333,0.696-0.593,0.905c-0.313,0.604-0.812,0.915-1.499,0.937c-0.791,0.031-1.556-1.52-2.294-4.652
		c-0.375-1.613-0.75-3.798-1.124-6.557l-0.375-2.341c-0.135-0.938-0.203-1.723-0.203-2.357c0-0.438,0.153-0.799,0.46-1.085
		c0.307-0.286,0.679-0.429,1.116-0.429c0.791,0,1.28,0.432,1.467,1.296c0.135,0.614,0.245,1.374,0.328,2.279l0.234,2.295
		l0.921,7.009c1.155-3.205,2.352-6.899,3.591-11.084c0.343-1.155,0.941-1.732,1.795-1.732c0.822,0,1.379,0.646,1.67,1.936
		c0.271,1.218,0.609,3.091,1.015,5.62c0.416,2.623,0.785,4.668,1.107,6.135l1.141-4.246l2.014-8.508
		c0.156-0.634,0.604-0.952,1.342-0.952c0.438,0,0.816,0.148,1.141,0.445c0.322,0.297,0.482,0.654,0.482,1.07
		C57.818,48.995,57.768,49.234,57.664,49.661z M80.361,46.18c0,12.051-3.117,18.077-9.351,18.077c-3.237,0-5.651-0.931-7.244-2.794
		c-1.29-1.499-2.103-3.716-2.435-6.65c-0.156-1.321-0.234-3.96-0.234-7.915c0-1.457,0.031-2.633,0.094-3.528
		c0.063-0.947,0.156-1.608,0.28-1.983c0.261-0.759,0.729-1.139,1.405-1.139c0.957,0,1.437,0.879,1.437,2.638v9.164
		c0,6.307,2.206,9.46,6.619,9.46c4.152,0,6.229-5.308,6.229-15.923c0-0.396,0-0.906,0-1.53c-0.011-0.624-0.016-1.041-0.016-1.249
		c0-0.646,0.114-1.212,0.343-1.702c0.292-0.625,0.724-0.937,1.296-0.937c1.041,0,1.562,0.713,1.562,2.139
		c0,0.427,0.005,1.072,0.016,1.936C80.361,45.108,80.361,45.753,80.361,46.18z"/>
</g>
</svg>
