<?xml version="1.0" encoding="utf-8"?>
<!-- Generator: Adobe Illustrator 16.0.0, SVG Export Plug-In . SVG Version: 6.00 Build 0)  -->
<!DOCTYPE svg PUBLIC "-//W3C//DTD SVG 1.1//EN" "http://www.w3.org/Graphics/SVG/1.1/DTD/svg11.dtd">
<svg version="1.1" xmlns="http://www.w3.org/2000/svg" xmlns:xlink="http://www.w3.org/1999/xlink" x="0px" y="0px" width="100px"
	 height="100px" viewBox="0 0 100 100" enable-background="new 0 0 100 100" xml:space="preserve">
<g id="Livello_3">
	<path fill="#FFFFFF" d="M33.396,106.269c0,0,3.478-9.7,10.066-16.471c2.746-4.758,4.576-8.418,4.576-8.418
		s3.112-15.19,1.647-17.021c-1.465-1.83-5.674-8.785-5.857-10.249c-0.183-1.464-4.758-5.857-4.393-9.334
		c-4.208,1.465-12.628,1.28-23.06-5.49c-7.137-0.915-4.209-1.464-4.209-1.464s-2.288-1.465-0.595-4.027
		c0.046-4.026,1.144-9.15,6.634-14.458c5.308-6.222,7.87-10.25,7.87-10.25l5.856-1.098h5.125c0,0,1.099,0.184,2.563,0.732
		c1.464,0.549,2.928,5.491,2.928,5.491l-2.013,2.379l-3.843-0.549l-3.569,0.183c0,0-1.83-0.641-2.104-1.922
		c-2.013,1.556-4.026,4.483-4.392,5.399c-0.366,0.915-1.19,2.104-0.916,4.118s-0.091,4.851-0.458,5.308
		c1.465,0.732,1.465,0.092,1.465,0.092s4.576-2.836,9.608,0.549c1.373,0.915,2.379-0.824,2.379-0.824s8.51-4.758,13.909,1.922
		c0.732,1.373,2.105,0.366,2.746-0.458c0.64-0.824,3.02-2.013,3.02-2.013v-2.104c0,0-1.464-1.83-0.55-4.484
		c0.916-2.654,0.184-1.922,0.184-1.922l-0.731-1.831c0,0-0.458-3.935-0.185-4.118c0.275-0.183,0.916-0.366,0.916-0.366
		s-0.185-5.033,1.372-7.138c1.556-2.105,3.479-3.752,7.23-3.478c3.75,0.274,7.687,1.282,8.326,5.308
		c0.641,4.026-0.915,6.497-0.915,6.497s0.64-0.184,0.458,0.823c-0.183,1.007-0.275,2.105-0.275,2.105l-0.64,1.83l-1.008,1.373
		c0,0,0.641,2.47,0.185,3.569c-0.457,1.098-1.648,1.831-1.648,1.831s-1.188,3.202,4.576,5.673c4.025,2.013,3.569,2.471,3.569,2.471
		s1.83,0.274,2.653,0.915c0.823,0.64,2.838-0.824,7.687,3.66c3.387,3.203,2.471,7.32,2.471,7.687s-0.731,1.464,1.373,4.118
		c2.104,2.653,3.203,7.139,3.294,8.327c0.092,1.189,1.099,3.751,1.099,3.751s0.366,2.746,0,3.203c0,0,0.274,3.941-3.02,5.083
		c-1.922-0.231-2.746-0.599-2.746-0.599s-6.314,0.367-7.504-0.092c-1.189-0.458-6.496-3.11-6.496-3.11s-2.013,4.94-2.196,6.863
		c-0.184,1.921,0.457,4.117,0.457,4.117S75.857,79,75.857,79.823s1.281,4.209,1.372,6.131c0.091,1.921,0.822,6.772,0.731,7.87
		s1.1,1.647,0.459,1.922c-0.642,0.274-0.459,0.549-0.184,1.098c0.274,0.55,0.547,1.189,0.365,1.464s0.823,6.496,0.458,7.961
		c-0.366,1.466-19.308,0-19.308,0s-1.373-4.758-1.557-5.581c-0.914,3.294-2.928,5.876-3.385,6.232
		C54.353,107.275,33.396,106.269,33.396,106.269z"/>
</g>
<g id="Livello_2">
</g>
</svg>
