<?xml version="1.0" encoding="utf-8"?>
<!-- Generator: Adobe Illustrator 16.0.0, SVG Export Plug-In . SVG Version: 6.00 Build 0)  -->
<!DOCTYPE svg PUBLIC "-//W3C//DTD SVG 1.1//EN" "http://www.w3.org/Graphics/SVG/1.1/DTD/svg11.dtd">
<svg version="1.1" id="Livello_2" xmlns="http://www.w3.org/2000/svg" xmlns:xlink="http://www.w3.org/1999/xlink" x="0px" y="0px"
	 width="100px" height="100px" viewBox="0 0 100 100" enable-background="new 0 0 100 100" xml:space="preserve">
<path fill="#FFFFFF" d="M81.823,86.856c2.831-1.617,2.848-4.313,1.761-4.987s-0.952-3.909-3.378-3.774
	c-1.349-3.64-3.505-10.649-4.719-13.48c-1.213-2.831-3.774-6.066-4.044-7.684c-0.27-1.618-1.482-16.446-5.122-22.242
	c-3.101-4.179-4.718-3.91-7.549-3.91s-6.444-2.665-6.875-3.504c-0.397-0.774-0.27-1.887-0.27-1.887c0,0,0.379,0.013,0.935-0.95
	c0.728-1.259,0.713-1.116,1.188-3.172c0.004-0.017,0.576-2.522,0.577-2.541c0.141-0.114,0.327-0.515,0.578-1.444
	c0.772-2.862-0.171-3.418-0.42-3.513C54.382,8.976,53.181,2.969,46.91,2.875c-7.776-0.116-8.357,7.26-8.368,11.292
	c-0.305,0.173-1.032,0.877-0.201,3.496c0.243,0.766,0.426,1.166,0.565,1.342c0.309,1.743,0.784,3.616,1.282,4.87
	c0.453,1.14,0.766,0.9,1.33,1.512c0,0,0.135,4.179-6.335,6.47c-6.471,2.292-8.223,2.426-9.706,10.649
	c-1.483,8.223-0.27,10.784-0.944,12.94c-0.674,2.157-0.135,4.314-1.213,6.471c-1.078,2.157-2.696,5.662-3.235,10.11
	c-0.54,4.448-2.157,6.875-2.157,6.875s-2.022,0.674-2.696,2.831c-0.674,2.156-2.292,4.179-1.483,4.987
	c0.809,0.809,3.505,0.674,3.505,0.674s-6.201,8.223,6.201,10.784c12.401,2.562,16.311-4.718,25.612-3.774
	c9.301,0.943,21.298,7.818,31.004,3.101C84.924,94.405,83.98,88.069,81.823,86.856z M36.261,65.558
	c-0.405,1.888-2.696,2.292-3.505,3.774c-0.809,1.483-2.292,7.01-3.235,8.224c-0.944,1.213-4.449,2.965-5.392,3.1
	c0,0-0.135-1.617,1.618-3.505c1.752-1.887,4.448-7.818,4.313-10.648c1.213-3.235,3.37-10.649,3.235-12.133
	C35.586,55.447,36.665,63.671,36.261,65.558z M69.414,77.667c-1.149-1.181-3.629-7.028-4.696-8.53
	c-1.07-1.502-3.393-1.567-4.139-3.583c-0.748-2.012-1.216-11.256,0.831-12.824c0.144,1.659,3.635,9.476,5.425,12.842
	c0.394,3.143,4.138,9.236,6.206,11.028c2.07,1.791,2.238,3.597,2.238,3.597C74.328,80.204,70.566,78.85,69.414,77.667z"/>
</svg>
