<?xml version="1.0" encoding="utf-8"?>
<!-- Generator: Adobe Illustrator 16.0.0, SVG Export Plug-In . SVG Version: 6.00 Build 0)  -->
<!DOCTYPE svg PUBLIC "-//W3C//DTD SVG 1.1//EN" "http://www.w3.org/Graphics/SVG/1.1/DTD/svg11.dtd">
<svg version="1.1" id="Livello_2" xmlns="http://www.w3.org/2000/svg" xmlns:xlink="http://www.w3.org/1999/xlink" x="0px" y="0px"
	 width="100px" height="100px" viewBox="0 0 100 100" enable-background="new 0 0 100 100" xml:space="preserve">
<g>
	<path fill="#FFFFFF" d="M43.293,29.723l14.088,28.585l5.911-10.707h28.794c1.639-4.322,2.332-8.917,2.539-14.352
		C95.125,20.125,87.443,10.609,73,9.375c-14.625-1.25-23,12.75-23,12.75s-8.375-14-23-12.75C12.556,10.609,4.875,20.125,5.375,33.25
		c0.207,5.435,0.901,10.03,2.54,14.352h27.514L43.293,29.723z"/>
	<path fill="#FFFFFF" d="M57.156,67.941L43.522,40.277l-5.184,11.784H9.994C12.518,56.533,16.32,60.912,22,65.875
		C34.875,77.125,50,90.75,50,90.75s15.125-13.625,28-24.875c5.68-4.963,9.482-9.342,12.006-13.813H65.925L57.156,67.941z"/>
</g>
</svg>
