<?xml version="1.0" encoding="utf-8"?>
<!-- Generator: Adobe Illustrator 16.0.0, SVG Export Plug-In . SVG Version: 6.00 Build 0)  -->
<!DOCTYPE svg PUBLIC "-//W3C//DTD SVG 1.1//EN" "http://www.w3.org/Graphics/SVG/1.1/DTD/svg11.dtd">
<svg version="1.1" xmlns="http://www.w3.org/2000/svg" xmlns:xlink="http://www.w3.org/1999/xlink" x="0px" y="0px" width="100px"
	 height="100px" viewBox="0 0 100 100" enable-background="new 0 0 100 100" xml:space="preserve">
<g id="Livello_2">
	<path fill="#FFFFFF" d="M15.185,70.058c0.537,1.869-0.543,3.82-2.413,4.357l0,0c-1.87,0.537-3.821-0.546-4.358-2.413L3.097,53.483
		c-0.537-1.87,0.543-3.821,2.414-4.357l0,0c1.87-0.537,3.82,0.543,4.357,2.413L15.185,70.058z"/>
	<path fill="#FFFFFF" d="M27.344,82.191c0.552,1.926-0.56,3.934-2.484,4.485l0,0c-1.925,0.553-3.933-0.558-4.485-2.483L6.768,36.804
		c-0.552-1.925,0.56-3.934,2.484-4.486l0,0c1.925-0.553,3.933,0.56,4.485,2.485L27.344,82.191z"/>
	<path fill="#FFFFFF" d="M43.915,57.519c0.505,1.761-0.512,3.596-2.271,4.101l0,0c-1.759,0.505-3.595-0.511-4.101-2.271
		l-2.916-10.154c-0.505-1.76,0.511-3.596,2.271-4.101l0,0c1.759-0.505,3.595,0.511,4.1,2.271L43.915,57.519z"/>
	<path fill="#FFFFFF" d="M50.026,43.663c-1.621,0.853-3.625,0.23-4.477-1.39l0,0c-0.853-1.62-0.231-3.624,1.39-4.476l9.351-4.92
		c1.618-0.852,3.623-0.229,4.477,1.39l0,0c0.852,1.621,0.229,3.625-1.392,4.477L50.026,43.663z"/>
	<g>
		<path fill="#FFFFFF" d="M44.851,42.887c-0.227,0.016-0.456,0.053-0.684,0.119c-1.76,0.505-2.776,2.341-2.271,4.101l3.702,12.894
			c0.506,1.761,2.341,2.777,4.101,2.272c1.76-0.506,2.776-2.341,2.271-4.102l-3.702-12.895c-0.021-0.072-0.057-0.135-0.082-0.204
			C46.894,44.987,45.618,44.198,44.851,42.887z"/>
		<path fill="#FFFFFF" d="M49.161,45.007c0.001,0.004,0.001,0.009,0.002,0.013l4.059,14.139c0.506,1.761,2.342,2.776,4.101,2.271
			c1.76-0.506,2.776-2.341,2.271-4.102l-4.06-14.138c-0.119-0.416-0.317-0.786-0.566-1.108l-5.023,2.644
			C49.693,44.858,49.429,44.946,49.161,45.007z"/>
		<path fill="#FFFFFF" d="M60.799,38.936c-0.156,0.125-0.317,0.247-0.5,0.343l-3.91,2.057c-0.109,0.515-0.113,1.058,0.042,1.599
			l3.702,12.895c0.506,1.761,2.343,2.776,4.102,2.271c1.76-0.506,2.775-2.34,2.271-4.102l-3.703-12.894
			C62.504,40.065,61.737,39.295,60.799,38.936z"/>
	</g>
	<path fill="#FFFFFF" d="M34.396,51.393l-6.771,1.943L21.652,32.53c-0.553-1.926-2.561-3.038-4.485-2.485
		c-1.924,0.552-3.037,2.561-2.484,4.486L28.29,81.92c0.553,1.927,2.561,3.037,4.485,2.484c1.924-0.553,3.036-2.56,2.483-4.485
		l-5.973-20.804l6.77-1.944L34.396,51.393z"/>
	<path fill="#FFFFFF" d="M85.084,29.943c-0.537-1.869,0.544-3.821,2.413-4.358l0,0c1.87-0.537,3.821,0.545,4.357,2.414l5.317,18.518
		c0.537,1.871-0.543,3.821-2.414,4.358l0,0c-1.868,0.537-3.82-0.543-4.356-2.414L85.084,29.943z"/>
	<path fill="#FFFFFF" d="M72.926,17.809c-0.554-1.926,0.56-3.934,2.483-4.486l0,0c1.925-0.552,3.933,0.56,4.485,2.485L93.5,63.197
		c0.554,1.926-0.559,3.933-2.483,4.485l0,0c-1.924,0.553-3.932-0.56-4.485-2.484L72.926,17.809z"/>
	<path fill="#FFFFFF" d="M67.494,15.596c-1.925,0.552-3.035,2.56-2.483,4.485l5.974,20.805l-6.771,1.944l1.66,5.778l6.771-1.944
		l5.974,20.806c0.553,1.925,2.561,3.037,4.484,2.484s3.037-2.56,2.484-4.485L71.979,18.08
		C71.427,16.155,69.419,15.043,67.494,15.596z"/>
</g>
<g id="Livello_3">
</g>
</svg>
