<?xml version="1.0" encoding="utf-8"?>
<!-- Generator: Adobe Illustrator 16.0.0, SVG Export Plug-In . SVG Version: 6.00 Build 0)  -->
<!DOCTYPE svg PUBLIC "-//W3C//DTD SVG 1.1//EN" "http://www.w3.org/Graphics/SVG/1.1/DTD/svg11.dtd">
<svg version="1.1" id="Livello_3" xmlns="http://www.w3.org/2000/svg" xmlns:xlink="http://www.w3.org/1999/xlink" x="0px" y="0px"
	 width="100px" height="100px" viewBox="0 0 100 100" enable-background="new 0 0 100 100" xml:space="preserve">
<path fill="#FFFFFF" d="M89.354,6.105c0.476-1.292-0.187-2.726-1.479-3.201c-1.292-0.477-2.727,0.186-3.2,1.479l-0.217,0.585
	l4.683,1.722L89.354,6.105z"/>
<polygon fill="#FFFFFF" points="71.014,41.516 75.693,43.238 70.652,49.719 "/>
<rect x="83.981" y="6.167" transform="matrix(0.9386 0.345 -0.345 0.9386 7.6245 -29.4256)" fill="#FFFFFF" width="4.987" height="1.078"/>
<rect x="77.356" y="6.499" transform="matrix(0.9386 0.345 -0.345 0.9386 13.4292 -26.031)" fill="#FFFFFF" width="4.989" height="36.431"/>
<path fill="#FFFFFF" d="M98.669,41.362c-1.899-3.56-7.351-3.75-8.233-3.763v-9.075c0-0.657-0.461-1.224-1.104-1.357
	c-2.259-0.467-4.492-0.763-6.672-0.896l-6.152,16.734l-6.424,8.259l0.46-10.453l0.051,0.019l5.302-14.419
	C62.037,27.894,54.199,36.43,51.18,40.549c-0.389,0.531-0.698,51.425-0.93,51.784c-0.226-0.351-0.525-51.23-0.901-51.745
	c-3.289-4.501-12.405-14.403-28.957-14.403c-2.97,0-6.073,0.331-9.223,0.982c-0.644,0.133-1.105,0.7-1.105,1.357v9.075
	c-0.876,0.015-6.337,0.21-8.232,3.763c-0.054,0.1-0.082,0.212-0.082,0.326v53.351c0,0.248,0.134,0.479,0.351,0.602
	c0.106,0.063,0.224,0.092,0.342,0.092c0.123,0,0.245-0.031,0.354-0.099c0.161-0.098,16.483-9.499,46.57-0.903
	c0.298,0.09,0.604-0.047,0.765-0.299c0.039-0.019,0.081-0.029,0.118-0.051c0.037,0.021,0.079,0.032,0.116,0.051
	c0.159,0.252,0.46,0.389,0.768,0.299c30.024-8.58,46.408,0.811,46.57,0.903c0.108,0.065,0.229,0.099,0.354,0.099
	c0.115,0,0.234-0.03,0.342-0.092c0.217-0.123,0.351-0.354,0.351-0.602V41.688C98.75,41.575,98.723,41.462,98.669,41.362z
	 M11.571,85.522c-1.158,0.195-2.603-0.741-2.529-1.867V39.167C9.276,39.065,9.66,39,10.065,38.983v44.044
	c0,0.402,0.175,0.785,0.479,1.05c0.253,0.22,0.576,0.337,0.906,0.337c0.067,0,0.134-0.005,0.2-0.016
	c0.044-0.006,4.428-0.635,10.161-0.635c9.385,0,21.286,1.619,25.936,9.088C41.734,84.396,19.671,84.155,11.571,85.522z
	 M91.754,83.218c0.073,1.126-1.372,2.063-2.529,1.867c-8.101-1.367-30.163-1.126-36.176,7.329
	c4.649-7.469,16.552-9.088,25.937-9.088c5.732,0,10.117,0.629,10.16,0.635c0.066,0.011,0.133,0.016,0.2,0.016
	c0.33,0,0.653-0.117,0.906-0.337c0.304-0.265,0.479-0.647,0.479-1.05V38.545c0.404,0.018,0.789,0.083,1.022,0.184V83.218z"/>
</svg>
